<svg xmlns="http://www.w3.org/2000/svg" width="88" height="88" viewBox="0 0 88 88"><rect width="88" height="88" fill="#4062bb"/><g transform="translate(28 28)"><path d="M0,0H32V32H0Z" fill="none"/><path d="M4.444,17.444h8.667A1.449,1.449,0,0,0,14.556,16V4.444A1.449,1.449,0,0,0,13.111,3H4.444A1.449,1.449,0,0,0,3,4.444V16A1.449,1.449,0,0,0,4.444,17.444ZM4.444,29h8.667a1.449,1.449,0,0,0,1.444-1.444V21.778a1.449,1.449,0,0,0-1.444-1.444H4.444A1.449,1.449,0,0,0,3,21.778v5.778A1.449,1.449,0,0,0,4.444,29Zm14.444,0h8.667A1.449,1.449,0,0,0,29,27.556V16a1.449,1.449,0,0,0-1.444-1.444H18.889A1.449,1.449,0,0,0,17.444,16V27.556A1.449,1.449,0,0,0,18.889,29ZM17.444,4.444v5.778a1.449,1.449,0,0,0,1.444,1.444h8.667A1.449,1.449,0,0,0,29,10.222V4.444A1.449,1.449,0,0,0,27.556,3H18.889A1.449,1.449,0,0,0,17.444,4.444Z" transform="translate(0 0)" fill="rgba(255,255,255,0.5)"/></g></svg>